<?xml version="1.0" encoding="UTF-8"?>
<svg version="1.1" xmlns="http://www.w3.org/2000/svg" width="2000" height="2567">
<path d="M0 0 C1.36925322 1.33816059 2.73032333 2.68467873 4.09106445 4.03149414 C4.8902832 4.77012695 5.68950195 5.50875977 6.51293945 6.26977539 C30.81525148 29.18936966 40.11010773 63.76082684 41.31762695 96.15649414 C42.83618949 162.28078106 14.26874233 226.8874902 -19.90893555 282.03149414 C-20.39861816 282.83039063 -20.88830078 283.62928711 -21.39282227 284.45239258 C-28.21141034 295.57165951 -35.47002874 306.25965127 -43.22485352 316.74584961 C-44.94678698 319.0828663 -46.65012557 321.43254683 -48.3503418 323.78540039 C-56.15006561 334.54006159 -64.33046537 344.88896575 -72.90893555 355.03149414 C-73.4376123 355.65926758 -73.96628906 356.28704102 -74.51098633 356.93383789 C-80.59402176 364.14731519 -86.81714975 371.20560368 -93.2409668 378.11743164 C-95.20944091 380.26747803 -97.11979442 382.4364495 -99.01733398 384.64697266 C-103.10446218 389.32291905 -107.44687698 393.71348479 -111.8425293 398.09790039 C-112.67929703 398.93562485 -113.51606476 399.7733493 -114.37818909 400.63645935 C-116.13761658 402.39656349 -117.89829208 404.15542091 -119.66015625 405.91308594 C-122.33862966 408.58620386 -125.01172428 411.26461665 -127.68432617 413.94360352 C-129.4034067 415.66202317 -131.12279744 417.38013256 -132.8425293 419.09790039 C-134.02727089 420.28567833 -134.02727089 420.28567833 -135.23594666 421.49745178 C-139.43395259 425.67799125 -143.70891011 429.70472443 -148.2041626 433.56483459 C-150.59560689 435.62225497 -152.90437789 437.76600853 -155.22143555 439.90649414 C-160.10781553 444.35838069 -165.14429098 448.56452544 -170.28930664 452.7121582 C-172.09878363 454.18614277 -173.88927159 455.68139668 -175.6784668 457.17993164 C-186.4685157 466.19676816 -197.58330741 474.70015414 -208.90893555 483.03149414 C-209.65224121 483.58160156 -210.39554688 484.13170898 -211.16137695 484.69848633 C-237.52791517 504.18756985 -265.20289565 521.6823081 -293.95727539 537.41625977 C-295.80153998 538.42549505 -297.64342948 539.43909715 -299.48168945 540.45922852 C-373.76691148 581.60366117 -471.89891195 614.9764385 -556.65893555 590.71899414 C-589.21290456 580.77060611 -616.35802288 559.76371484 -632.65893555 529.78149414 C-641.93916579 512.05772614 -646.93187381 491.88340365 -647.1472168 471.88696289 C-647.15705597 471.12820358 -647.16689514 470.36944427 -647.17703247 469.58769226 C-648.05839245 383.75229546 -606.88044827 304.8934844 -556.6784668 237.49951172 C-553.63614723 233.41183092 -550.68665899 229.30386484 -547.90893555 225.03149414 C-546.91893555 225.36149414 -545.92893555 225.69149414 -544.90893555 226.03149414 C-545.23990234 226.55243652 -545.57086914 227.07337891 -545.91186523 227.61010742 C-570.4747745 266.41544687 -590.57866978 307.31430742 -597.90893555 353.03149414 C-598.10358398 354.22387695 -598.29823242 355.41625977 -598.4987793 356.64477539 C-599.28758287 363.3769073 -599.15339759 370.19898602 -599.15893555 376.96899414 C-599.15961029 377.70792908 -599.16028503 378.44686401 -599.16098022 379.20819092 C-599.14516905 390.09602932 -598.7824986 400.46419774 -595.90893555 411.03149414 C-595.56862305 412.28961914 -595.22831055 413.54774414 -594.87768555 414.84399414 C-587.27084902 439.92599566 -571.08044181 460.41444146 -548.1472168 473.16821289 C-496.5823902 500.67809649 -433.97454476 491.21465416 -380.4163208 475.03565979 C-339.85030578 462.59596481 -301.09725437 444.07541106 -264.90893555 422.03149414 C-263.8715625 421.40033691 -262.83418945 420.76917969 -261.76538086 420.11889648 C-249.83097411 412.8264592 -238.16637449 405.32791937 -226.90893555 397.03149414 C-225.75736353 396.21346273 -224.60365998 395.39842484 -223.44799805 394.58618164 C-215.04153424 388.67516894 -206.9208655 382.465638 -198.90893555 376.03149414 C-198.26666016 375.51683594 -197.62438477 375.00217773 -196.96264648 374.47192383 C-180.75529737 361.46328944 -164.86825072 348.09406696 -150.2175293 333.32836914 C-147.86660391 330.96299875 -145.47730214 328.72507418 -142.90893555 326.59399414 C-139.54471765 323.6938063 -136.69000811 320.58358208 -133.82299805 317.19946289 C-131.61668071 314.70047081 -129.28209862 312.37239367 -126.90893555 310.03149414 C-122.69208466 305.8526329 -118.75625443 301.54824651 -114.90893555 297.03149414 C-114.02966817 296.02676365 -113.14937332 295.02293184 -112.26831055 294.01977539 C-105.00591982 285.71001782 -98.20506111 277.11175935 -91.59301758 268.27758789 C-89.89380345 266.01131216 -88.18095088 263.75578979 -86.4675293 261.50024414 C-46.14688932 208.03868971 -8.25693365 136.81701561 -17.73583984 67.63623047 C-20.93117697 47.87792715 -28.22096104 30.64044119 -40.90893555 15.03149414 C-41.4606543 14.31477539 -42.01237305 13.59805664 -42.58081055 12.85961914 C-61.64167924 -10.73056488 -94.76500712 -20.26477172 -123.65893555 -23.55834961 C-148.38828382 -25.81894716 -173.59514208 -23.62925151 -197.8347168 -18.51928711 C-200.61231527 -18.02164876 -203.09723171 -17.85772578 -205.90893555 -17.96850586 C-203.32634356 -20.55109785 -201.30419039 -20.82906093 -197.76831055 -21.73803711 C-197.14280304 -21.89937637 -196.51729553 -22.06071564 -195.87283325 -22.22694397 C-193.80398045 -22.75529154 -191.73212809 -23.26996399 -189.65893555 -23.78100586 C-188.58751312 -24.04654266 -188.58751312 -24.04654266 -187.4944458 -24.31744385 C-128.20123928 -38.91439461 -48.29927027 -46.15156753 0 0 Z " fill="#53A2A0" transform="translate(1497.908935546875,1487.968505859375)"/>
<path d="M0 0 C107.91 0 215.82 0 327 0 C327 70.95 327 141.9 327 215 C219.09 215 111.18 215 0 215 C0 144.05 0 73.1 0 0 Z " fill="#53A3A1" transform="translate(842,483)"/>
<path d="M0 0 C75.57 0 151.14 0 229 0 C229 48.84 229 97.68 229 148 C153.43 148 77.86 148 0 148 C0 99.16 0 50.32 0 0 Z " fill="#53A3A1" transform="translate(848,794)"/>
<path d="M0 0 C1.17626953 0.00757324 2.35253906 0.01514648 3.56445312 0.02294922 C20.40312962 0.3403541 35.12883458 4.44713891 47.68359375 16.23828125 C56.46325997 25.87366542 59.79311497 37.73460975 59.8293457 50.53417969 C59.83282013 51.21815323 59.83629456 51.90212677 59.83987427 52.60682678 C59.84719274 54.08487904 59.8525588 55.56294202 59.85616493 57.041008 C59.86340247 59.39886542 59.87912762 61.75652324 59.89750671 64.11431885 C59.94959588 70.81625407 59.99777578 77.51808212 60.01342773 84.22021484 C60.023654 88.3317291 60.0533456 92.4427409 60.09474754 96.55405426 C60.10686497 98.10214644 60.11221507 99.65031024 60.10994911 101.19844818 C60.09718398 112.77957345 61.88319673 123.21996092 64.6875 134.4375 C65.6775 138.8925 65.6775 138.8925 66.6875 143.4375 C51.8375 143.4375 36.9875 143.4375 21.6875 143.4375 C20.0375 139.1475 18.3875 134.8575 16.6875 130.4375 C15.718125 131.30375 14.74875 132.17 13.75 133.0625 C1.43669566 143.56356399 -9.45984868 147.34441255 -25.85546875 146.1875 C-38.99888807 144.46175209 -49.84326746 138.7752024 -58.3125 128.4375 C-65.09058385 117.78378634 -66.5218419 104.67246768 -64.125 92.43359375 C-61.26876048 81.90121051 -55.35759852 74.23411675 -46.109375 68.42578125 C-38.11604177 64.15131942 -30.25932874 61.75470015 -21.3125 60.4375 C-20.67143311 60.34251221 -20.03036621 60.24752441 -19.36987305 60.1496582 C-12.50430194 59.25079227 -5.6634588 59.32526289 1.25 59.375 C2.44947266 59.37951172 3.64894531 59.38402344 4.88476562 59.38867188 C7.81906359 59.40036231 10.75325449 59.41674862 13.6875 59.4375 C13.80215954 46.40438853 13.80215954 46.40438853 7.6875 35.5625 C1.93204535 32.32505676 -4.39241336 33.17203758 -10.75 33.75 C-14.76501785 35.98928929 -14.76501785 35.98928929 -16.3125 46.4375 C-30.8325 46.4375 -45.3525 46.4375 -60.3125 46.4375 C-60.3125 34.43688373 -58.73463638 25.99104468 -50.3125 17.2421875 C-36.23554628 4.53993629 -18.65891767 -0.16977351 0 0 Z M-14.1875 87.125 C-18.60544439 91.93276302 -19.85351676 96.99508943 -19.59375 103.359375 C-19.18114007 106.40810394 -18.34785469 108.13076468 -16.3125 110.4375 C-11.12783719 114.19638054 -5.47204927 114.34478496 0.6875 113.4375 C5.52584582 111.6932897 10.4132979 109.52578754 13.6875 105.4375 C14.1003282 103.02182123 14.1003282 103.02182123 13.98046875 100.33203125 C13.97080078 99.34912109 13.96113281 98.36621094 13.95117188 97.35351562 C13.92603516 96.32935547 13.90089844 95.30519531 13.875 94.25 C13.86146484 93.21423828 13.84792969 92.17847656 13.83398438 91.11132812 C13.79861389 88.55286301 13.74925544 85.9954422 13.6875 83.4375 C-0.75799538 82.69487694 -0.75799538 82.69487694 -14.1875 87.125 Z " fill="#84CED4" transform="translate(1078.3125,1563.5625)"/>
<path d="M0 0 C10.59337484 8.03369474 16.44348248 16.97686295 19 30 C19.42520389 35.28808104 19.44104173 40.5587689 19.44140625 45.859375 C19.45321628 47.37714892 19.46658914 48.89491138 19.48143005 50.41265869 C19.51736346 54.38520439 19.53773141 58.35764871 19.55297852 62.33032227 C19.57792987 68.67116634 19.61829112 75.01178624 19.67487907 81.35242462 C19.69088631 83.53837191 19.69495588 85.72409732 19.69789124 87.91009521 C19.7740932 103.8257387 22.66311469 117.38721287 27 133 C12.15 133 -2.7 133 -18 133 C-22.5 124 -22.5 124 -24 120 C-24.60585938 120.59167969 -25.21171875 121.18335938 -25.8359375 121.79296875 C-36.45219606 131.80491721 -46.08902743 135.90973342 -60.77734375 136.03125 C-74.48364448 135.47464896 -86.17546862 131.40290053 -95.75 121.3125 C-104.2530002 111.02980208 -106.17740335 98.95785325 -105 86 C-102.80305748 74.46291326 -97.61839815 65.76564679 -88 59 C-73.25920038 49.61949115 -55.31603009 48.81473891 -38.375 48.9375 C-36.58255859 48.94426758 -36.58255859 48.94426758 -34.75390625 48.95117188 C-31.83588353 48.96284397 -28.91796963 48.97921674 -26 49 C-26.2565495 46.28962998 -26.52971049 43.58265385 -26.8125 40.875 C-26.91788086 39.73417969 -26.91788086 39.73417969 -27.02539062 38.5703125 C-27.53717151 33.82098586 -28.39392982 30.11947479 -31 26 C-36.18037237 22.89177658 -41.01683172 22.1949919 -47 23 C-50.2700456 24.18910749 -52.26483255 24.98476877 -54.3125 27.8125 C-55.14797621 30.4708334 -55.54189707 33.25138241 -56 36 C-70.85 36 -85.7 36 -101 36 C-101 23.26023276 -97.44196815 14.75687488 -88.875 5.375 C-67.35474863 -14.92090447 -24.09435246 -16.72081029 0 0 Z M-56 78.8125 C-59.27946212 84.03914276 -60.53033065 88.03028906 -59.54296875 94.10546875 C-58.49452553 97.76370587 -56.39235042 100.14778552 -53.1875 102.109375 C-48.26657939 104.11289268 -42.4847674 103.74046832 -37.45703125 102.2421875 C-35.18386594 101.27504514 -33.10819367 100.28878255 -31 99 C-30.09636719 98.525625 -29.19273437 98.05125 -28.26171875 97.5625 C-24.62452113 93.44159907 -25.46938604 89.03842472 -25.6875 83.75 C-25.72133789 82.203125 -25.72133789 82.203125 -25.75585938 80.625 C-25.81472837 78.08185935 -25.89689935 75.54166887 -26 73 C-42.25965949 71.75210458 -42.25965949 71.75210458 -56 78.8125 Z " fill="#84CED4" transform="translate(668,1574)"/>
<path d="M0 0 C1.19568604 0.00491455 2.39137207 0.0098291 3.62329102 0.01489258 C21.89283236 0.25759035 37.43222676 4.66047813 50.94140625 17.375 C59.67795953 26.38507336 60.75 33.78159638 60.75 46.3125 C46.23 46.3125 31.71 46.3125 16.75 46.3125 C15.76 43.0125 14.77 39.7125 13.75 36.3125 C11.96623743 33.33956238 10.62007254 32.59587878 7.36328125 31.53515625 C0.90385498 30.01264155 -4.34067722 30.09930574 -10.25 33.3125 C-12.29748238 34.93067155 -13.12303686 35.88339673 -13.8671875 38.3984375 C-14.2727823 41.99962766 -14.47038939 44.65133183 -13.3125 48.125 C-7.11369747 54.69948753 2.38078132 55.8282617 10.8125 57.6875 C28.58336681 61.7642187 46.86208328 66.3861568 57.75 82.3125 C62.8986922 92.40683739 63.66795289 104.41466962 60.1875 115.1875 C55.26911392 126.77838189 45.93150414 134.92394884 34.6484375 140.18359375 C13.64412825 148.36451743 -12.28750527 149.05372329 -33.25 140.3125 C-46.57509583 133.56903045 -56.12154299 123.33341917 -61.25 109.3125 C-62.01404028 105.61891099 -62.48441338 102.08509025 -62.25 98.3125 C-61.25 97.3125 -61.25 97.3125 -57.37280273 97.19897461 C-55.64305833 97.19913379 -53.91330919 97.20483151 -52.18359375 97.21484375 C-51.27497086 97.2162587 -50.36634796 97.21767365 -49.43019104 97.21913147 C-46.51592779 97.22474807 -43.60174019 97.23730335 -40.6875 97.25 C-38.71679798 97.25501286 -36.74609476 97.25957614 -34.77539062 97.26367188 C-29.93356441 97.27472289 -25.09179505 97.29199862 -20.25 97.3125 C-20.0646167 98.07103271 -19.8792334 98.82956543 -19.68823242 99.61108398 C-19.3069519 101.10103882 -19.3069519 101.10103882 -18.91796875 102.62109375 C-18.67071045 103.60650146 -18.42345215 104.59190918 -18.16870117 105.60717773 C-16.72191176 109.86757461 -15.13120124 111.04236343 -11.25 113.3125 C-3.52574432 116.31904258 4.13652953 116.09256137 11.828125 113.21484375 C14.51207916 111.95469454 15.6243223 111.08917165 16.75 108.3125 C17.45186332 102.65119394 17.45186332 102.65119394 15.01953125 97.7109375 C8.56134706 90.88593734 -2.26871468 89.48439146 -11.0625 87.375 C-26.42513649 83.67215016 -43.05744738 79.47775111 -52.75 65.875 C-58.58707856 55.93847032 -59.97166191 45.69342022 -57.62890625 34.2890625 C-53.79475934 22.39468674 -45.91489749 13.57759332 -35.25 7.3125 C-23.71054535 1.46066789 -12.8258659 -0.0620737 0 0 Z " fill="#84CFD5" transform="translate(764.25,1563.6875)"/>
<path d="M0 0 C0.87688477 -0.00064453 1.75376953 -0.00128906 2.65722656 -0.00195312 C9.35446449 0.05231547 15.76881522 0.6978807 22.3125 2.1875 C23.380813 6.3276395 23.2204313 9.78348376 22.75390625 14.01953125 C22.61533203 15.31181641 22.47675781 16.60410156 22.33398438 17.93554688 C22.18115374 19.29038311 22.02815686 20.6452006 21.875 22 C21.72521763 23.37427351 21.57612187 24.74862205 21.42773438 26.12304688 C21.06273741 29.47866413 20.69074889 32.83335499 20.3125 36.1875 C19.45084229 36.16393433 19.45084229 36.16393433 18.57177734 36.13989258 C15.94378691 36.07714487 13.31595463 36.03838494 10.6875 36 C9.78386719 35.97486328 8.88023437 35.94972656 7.94921875 35.92382812 C2.67448832 35.8660756 -1.23134565 36.02705823 -5.6875 39.1875 C-9.63216744 43.5863509 -9.23514769 48.89006676 -9.375 54.5 C-9.478125 57.696875 -9.58125 60.89375 -9.6875 64.1875 C-0.7775 64.1875 8.1325 64.1875 17.3125 64.1875 C17.3125 74.7475 17.3125 85.3075 17.3125 96.1875 C8.4025 96.1875 -0.5075 96.1875 -9.6875 96.1875 C-9.6875 132.1575 -9.6875 168.1275 -9.6875 205.1875 C-24.8675 205.1875 -40.0475 205.1875 -55.6875 205.1875 C-55.6875 169.2175 -55.6875 133.2475 -55.6875 96.1875 C-62.2875 96.1875 -68.8875 96.1875 -75.6875 96.1875 C-75.6875 85.6275 -75.6875 75.0675 -75.6875 64.1875 C-69.0875 64.1875 -62.4875 64.1875 -55.6875 64.1875 C-55.72230469 62.75019531 -55.75710938 61.31289062 -55.79296875 59.83203125 C-56.08072878 43.12014952 -55.44230432 27.47630962 -43.5625 14.4375 C-31.25843344 3.16328924 -16.19056128 -0.0123169 0 0 Z " fill="#84CDD3" transform="translate(538.6875,1501.8125)"/>
<path d="M0 0 C14.85 0 29.7 0 45 0 C45 11.22 45 22.44 45 34 C52.92 34 60.84 34 69 34 C69 44.56 69 55.12 69 66 C61.08 66 53.16 66 45 66 C45.06303615 74.61505627 45.13854579 83.22973088 45.23571491 91.84446049 C45.28034742 95.84509815 45.31961889 99.84563565 45.34643555 103.84643555 C45.37254006 107.71105443 45.41299206 111.57528641 45.46318626 115.43966484 C45.47980688 116.91031501 45.491351 118.38103202 45.49761391 119.85176277 C45.507308 121.91989347 45.53542709 123.98704504 45.56762695 126.05493164 C45.57873001 127.22963516 45.58983307 128.40433868 45.60127258 129.61463928 C46.07966996 133.67643094 47.14280183 136.36407683 49 140 C51.296537 141.1482685 52.58313167 141.11561175 55.1328125 141.09765625 C55.93847656 141.09443359 56.74414062 141.09121094 57.57421875 141.08789062 C58.41597656 141.07951172 59.25773438 141.07113281 60.125 141.0625 C60.97449219 141.05798828 61.82398438 141.05347656 62.69921875 141.04882812 C64.79950909 141.03702874 66.8997633 141.01909306 69 141 C69.50766936 145.16576916 70.00474723 149.33273792 70.5 153.5 C70.64308594 154.67304687 70.78617188 155.84609375 70.93359375 157.0546875 C71.64467172 163.08191981 72.18026954 168.93092562 72 175 C54.56871095 179.11794214 33.76495579 180.63609408 17.69140625 171.75390625 C8.38062992 165.68636115 3.46778553 157.6486379 0.94921875 146.89257812 C-0.54751437 139.20609513 -0.24698716 131.41215049 -0.1953125 123.6171875 C-0.19157544 121.94996308 -0.18873175 120.28273645 -0.18673706 118.61550903 C-0.17915512 114.25901059 -0.15955433 109.90264867 -0.1373291 105.54620361 C-0.11675251 101.08811285 -0.10771025 96.62999971 -0.09765625 92.171875 C-0.07630249 83.44784749 -0.04116568 74.72395654 0 66 C-6.6 66 -13.2 66 -20 66 C-20 55.44 -20 44.88 -20 34 C-13.4 34 -6.8 34 0 34 C0 22.78 0 11.56 0 0 Z " fill="#84CED4" transform="translate(853,1532)"/>
<path d="M0 0 C32.01 0 64.02 0 97 0 C97 31.68 97 63.36 97 96 C64.99 96 32.98 96 0 96 C0 64.32 0 32.64 0 0 Z " fill="#84CFD5" transform="translate(725,1308)"/>
<path d="M0 0 C32.01 0 64.02 0 97 0 C97 31.68 97 63.36 97 96 C64.99 96 32.98 96 0 96 C0 64.32 0 32.64 0 0 Z " fill="#84CFD5" transform="translate(617,1308)"/>
<path d="M0 0 C32.01 0 64.02 0 97 0 C97 31.68 97 63.36 97 96 C64.99 96 32.98 96 0 96 C0 64.32 0 32.64 0 0 Z " fill="#84CFD5" transform="translate(725,1189)"/>
<path d="M0 0 C32.01 0 64.02 0 97 0 C97 31.68 97 63.36 97 96 C64.99 96 32.98 96 0 96 C0 64.32 0 32.64 0 0 Z " fill="#84CFD5" transform="translate(725,1070)"/>
<path d="M0 0 C32.01 0 64.02 0 97 0 C97 31.68 97 63.36 97 96 C64.99 96 32.98 96 0 96 C0 64.32 0 32.64 0 0 Z " fill="#84CFD5" transform="translate(617,1070)"/>
<path d="M0 0 C32.01 0 64.02 0 97 0 C97 31.68 97 63.36 97 96 C64.99 96 32.98 96 0 96 C0 64.32 0 32.64 0 0 Z " fill="#84CFD5" transform="translate(507,1070)"/>
<path d="M0 0 C32.01 0 64.02 0 97 0 C97 31.68 97 63.36 97 96 C64.99 96 32.98 96 0 96 C0 64.32 0 32.64 0 0 Z " fill="#84CFD5" transform="translate(725,951)"/>
<path d="M0 0 C32.01 0 64.02 0 97 0 C97 31.68 97 63.36 97 96 C64.99 96 32.98 96 0 96 C0 64.32 0 32.64 0 0 Z " fill="#84CFD5" transform="translate(617,839)"/>
<path d="M0 0 C32.01 0 64.02 0 97 0 C97 31.68 97 63.36 97 96 C64.99 96 32.98 96 0 96 C0 64.32 0 32.64 0 0 Z " fill="#84CFD5" transform="translate(507,839)"/>
<path d="M0 0 C32.01 0 64.02 0 97 0 C97 31.68 97 63.36 97 96 C64.99 96 32.98 96 0 96 C0 64.32 0 32.64 0 0 Z " fill="#84CFD5" transform="translate(617,721)"/>
<path d="M0 0 C32.01 0 64.02 0 97 0 C97 31.68 97 63.36 97 96 C64.99 96 32.98 96 0 96 C0 64.32 0 32.64 0 0 Z " fill="#84CFD5" transform="translate(725,602)"/>
<path d="M0 0 C32.01 0 64.02 0 97 0 C97 31.68 97 63.36 97 96 C64.99 96 32.98 96 0 96 C0 64.32 0 32.64 0 0 Z " fill="#84CFD5" transform="translate(507,602)"/>
<path d="M0 0 C32.01 0 64.02 0 97 0 C97 31.68 97 63.36 97 96 C64.99 96 32.98 96 0 96 C0 64.32 0 32.64 0 0 Z " fill="#84CFD5" transform="translate(725,483)"/>
<path d="M0 0 C32.01 0 64.02 0 97 0 C97 31.68 97 63.36 97 96 C64.99 96 32.98 96 0 96 C0 64.32 0 32.64 0 0 Z " fill="#84CFD5" transform="translate(617,483)"/>
<path d="M0 0 C15.18 0 30.36 0 46 0 C46 46.53 46 93.06 46 141 C30.82 141 15.64 141 0 141 C0 94.47 0 47.94 0 0 Z " fill="#83CDD3" transform="translate(1162,1566)"/>
<path d="M0 0 C5.68086161 3.3375062 9.59227713 8.19149701 11.625 14.4375 C12.49697313 21.78843628 12.21023072 28.41350186 7.625 34.4375 C2.26231313 40.25465186 -2.84409253 42.46403025 -10.75 42.8125 C-17.04772732 42.66723356 -21.40129112 41.10707956 -26.09375 36.89453125 C-30.40802826 32.27360086 -33.16790478 27.37230927 -33.50390625 20.98828125 C-33.14994855 13.98420914 -30.74978262 8.91857499 -25.88671875 3.90234375 C-18.78716447 -2.39002606 -8.7463872 -3.92660543 0 0 Z " fill="#83CDD3" transform="translate(1195.375,1516.5625)"/>
<path d="M0 0 C5.97742247 2.74298545 9.76797909 7.20639049 12.29296875 13.25 C14.53100941 20.05415811 13.611338 25.47906655 10.80078125 31.9453125 C7.51062239 37.84423637 2.34942001 41.06712169 -4.0546875 42.90625 C-9.9866259 43.88393874 -15.43700958 43.33411441 -20.83203125 40.6875 C-26.27909386 35.87381676 -30.89246019 31.19052951 -31.85546875 23.69921875 C-31.96164523 16.362424 -31.0310447 10.97066599 -25.8359375 5.55859375 C-18.26330942 -1.19977325 -10.0166017 -2.73321225 0 0 Z " fill="#83CDD3" transform="translate(978.51953125,1664.6875)"/>
<path d="M0 0 C0.99 0.33 1.98 0.66 3 1 C2.63237549 1.589021 2.26475098 2.17804199 1.88598633 2.78491211 C0.1925638 5.50103946 -1.49748295 8.21925252 -3.1875 10.9375 C-3.76564453 11.86369141 -4.34378906 12.78988281 -4.93945312 13.74414062 C-8.45919405 19.41152008 -11.82667984 25.13130758 -15 31 C-15.33 30.34 -15.66 29.68 -16 29 C-21.00682048 32.40500406 -23.67980421 36.70589971 -26.8125 41.75 C-27.31458984 42.54277344 -27.81667969 43.33554688 -28.33398438 44.15234375 C-29.56389539 46.0967745 -30.78553735 48.04589742 -32 50 C-32.66 49.67 -33.32 49.34 -34 49 C-25.28687768 35.7084783 -16.43494957 22.60941729 -6.890625 9.8984375 C-4.47083116 6.67047646 -2.19805847 3.3824492 0 0 Z " fill="#4A918F" transform="translate(950,1713)"/>
<path d="M0 0 C0 3 0 3 -1.609375 4.76171875 C-2.31578125 5.39722656 -3.0221875 6.03273438 -3.75 6.6875 C-12.16393672 14.80412447 -14.20909728 24.54349845 -14.625 35.9375 C-14.66367187 36.81212891 -14.70234375 37.68675781 -14.7421875 38.58789062 C-14.8356107 40.72494631 -14.91885398 42.86244294 -15 45 C-18.55321837 38.48635706 -17.82785563 30.08164265 -16.3828125 22.95703125 C-13.38892124 13.77664788 -7.7118951 5.78056833 0 0 Z " fill="#73B4B9" transform="translate(723,1575)"/>
<path d="M0 0 C0.99 0.33 1.98 0.66 3 1 C1.62271027 3.32548919 0.22523546 5.63368893 -1.1875 7.9375 C-1.57486328 8.59685547 -1.96222656 9.25621094 -2.36132812 9.93554688 C-5.37314378 14.78929937 -5.37314378 14.78929937 -8.80078125 15.94140625 C-9.52652344 15.96074219 -10.25226562 15.98007813 -11 16 C-7.43120211 10.59161557 -3.79801861 5.25020219 0 0 Z " fill="#438482" transform="translate(950,1713)"/>
<path d="M0 0 C0.66 0.99 1.32 1.98 2 3 C0.43883181 3.33951619 -1.12401338 3.67132544 -2.6875 4 C-3.99267578 4.2784375 -3.99267578 4.2784375 -5.32421875 4.5625 C-7.93712964 4.98972047 -10.35813038 5.07616201 -13 5 C-10.53698577 2.53698577 -8.72639964 2.23233479 -5.375 1.375 C-4.37210938 1.11460938 -3.36921875 0.85421875 -2.3359375 0.5859375 C-1.56507812 0.39257812 -0.79421875 0.19921875 0 0 Z " fill="#498F8D" transform="translate(1305,1465)"/>
<path d="M0 0 C0.99 0 1.98 0 3 0 C3.66 0.99 4.32 1.98 5 3 C4.34 3.66 3.68 4.32 3 5 C3 4.34 3 3.68 3 3 C1.35 4.32 -0.3 5.64 -2 7 C-2.66 6.67 -3.32 6.34 -4 6 C-2.1875 3 -2.1875 3 0 0 Z " fill="#458785" transform="translate(931,1739)"/>
<path d="M0 0 C0 3 0 3 -1.53125 4.60546875 C-2.1809375 5.12753906 -2.830625 5.64960937 -3.5 6.1875 C-4.1496875 6.71730469 -4.799375 7.24710938 -5.46875 7.79296875 C-5.9740625 8.19128906 -6.479375 8.58960938 -7 9 C-6.19095897 4.20719998 -3.74015409 2.86479887 0 0 Z " fill="#7DC3C9" transform="translate(723,1575)"/>
</svg>
