<?xml version="1.0" encoding="UTF-8"?>
<svg version="1.1" xmlns="http://www.w3.org/2000/svg" width="600" height="201">
<path d="M0 0 C3.67934685 7.86512066 7.04425693 15.46946739 9.0625 23.9375 C10.61816895 30.33603403 12.99557046 34.83736622 17 40 C17.33 40.66 17.66 41.32 18 42 C18.32871094 41.5153125 18.65742188 41.030625 18.99609375 40.53125 C26.30647246 30.22936131 36.01741272 21.94699206 48.6796875 19.28125 C62.44640276 17.61255724 73.77052919 19.79247277 85 28 C95.83942467 37.16518233 100.60092986 46.86186975 102 61 C104.1194351 93.16012397 94.41579355 126.29082834 75.51416016 152.50390625 C73.70285454 154.29360003 72.51170308 154.71215466 70 155 C69.34 154.67 68.68 154.34 68 154 C68.58369298 149.59352905 70.37813373 146.28674944 72.5625 142.5 C86.80831105 116.61001226 95.77247213 84.37699672 88.2578125 55.109375 C84.99629219 45.00732094 79.24138854 36.13693105 69.703125 31.08984375 C60.05351953 27.19932363 51.60604425 27.49994646 42.02734375 31.125 C29.86365972 36.53791628 23.82965877 45.32430462 18.41015625 56.99609375 C17 60 17 60 15 63 C14.62875 61.8553125 14.62875 61.8553125 14.25 60.6875 C13.8375 59.470625 13.425 58.25375 13 57 C12.5978125 55.74703125 12.5978125 55.74703125 12.1875 54.46875 C9.23703085 45.71569152 5.6423402 37.3211701 -3 33 C-12.06882461 29.82591139 -20.1055096 31.07754486 -28.8125 34.9140625 C-35.19430392 38.0821723 -38.24305659 42.57068023 -41 49 C-43.1496431 56.26718053 -41.45713916 63.44792079 -38.1875 70.125 C-32.18012013 80.30367629 -23.00197257 88.91237204 -15.1015625 97.6171875 C-12.86886688 100.14868253 -10.74355345 102.74739484 -8.625 105.375 C-4.95050201 109.92011075 -1.09333346 114.22706528 2.89599609 118.49267578 C6.90265765 122.80721616 10.53639082 127.3451557 14.125 132.015625 C14.74375 132.67046875 15.3625 133.3253125 16 134 C19.18043435 134.34232811 19.18043435 134.34232811 21.3828125 131.76171875 C22.30603692 130.74522569 23.21951578 129.71982737 24.125 128.6875 C24.61291016 128.14351562 25.10082031 127.59953125 25.60351562 127.0390625 C29.43684405 122.73094112 33.07282911 118.27376954 36.6875 113.78125 C39.64110477 110.22894156 42.76782323 106.86137228 45.9140625 103.48046875 C48.90441358 100.24788253 51.73786329 96.93294134 54.5 93.5 C57.8741586 89.31286478 61.37450511 85.28126484 65 81.3125 C65.48146484 80.78269531 65.96292969 80.25289063 66.45898438 79.70703125 C67.6170077 78.45041719 68.80561824 77.22210848 70 76 C70.33 76 70.66 76 71 76 C72.37113838 88.69572577 72.37113838 88.69572577 69.3125 93.8359375 C66.97310227 96.34591632 64.51055704 98.66218771 62 101 C60.5339026 102.74723077 59.09654163 104.51893968 57.6875 106.3125 C53.79744069 111.12585437 49.67128166 115.6476145 45.44433594 120.16113281 C41.53064003 124.36380945 37.89745021 128.74157308 34.3046875 133.22265625 C31.21162981 136.95005289 27.94059605 140.49654831 24.62866211 144.02954102 C22.52784332 146.28000926 20.71403309 148.42895036 19 151 C15.18371168 149.45427224 13.02974257 147.11228755 10.3125 144.0625 C9.65677002 143.32942627 9.65677002 143.32942627 8.98779297 142.58154297 C6.10777101 139.33514308 3.3489711 136.00391497 0.625 132.625 C-3.24154184 127.8293951 -7.34851983 123.33121333 -11.5559082 118.83862305 C-15.48239821 114.62216147 -19.12834568 110.23148726 -22.7265625 105.73046875 C-24.74670913 103.30421016 -26.85349372 101.00770568 -29.03393555 98.72583008 C-37.90778915 89.39508646 -44.81922657 79.40977767 -49.625 67.4375 C-51.83135288 61.95418746 -53.80091801 58.50817203 -58.94140625 55.421875 C-64.07436113 51.87653235 -68.56458765 45.74412913 -71 40 C-71 37.9375 -71 37.9375 -70 36 C-64.64363046 32.41200126 -60.31294381 32.91907071 -54.1875 33.3125 C-47.34901899 33.62031654 -47.34901899 33.62031654 -41.04296875 31.37109375 C-38.8593074 29.28763114 -38.8593074 29.28763114 -36.9375 27.046875 C-33.26486601 23.1669149 -28.07686866 21.3296645 -22.8125 20.765625 C-20.875 20.75 -20.875 20.75 -18 21 C-17.7215625 19.824375 -17.7215625 19.824375 -17.4375 18.625 C-14.76980985 11.89778135 -8.39485293 0 0 0 Z " fill="#F28346" transform="translate(318,1)"/>
<path d="M0 0 C6.1875 -0.04125 12.375 -0.0825 18.75 -0.125 C20.67682617 -0.14320801 22.60365234 -0.16141602 24.58886719 -0.18017578 C38.34444808 -0.25788154 51.19554652 0.00816503 63 8 C66.03521463 11.15084186 66.89176258 14.22880838 67.5 18.5625 C66.88496659 22.79085472 65.79686681 24.77284599 63 28 C60.72776683 29.5715874 58.48331265 30.75834368 56 32 C56.86882812 32.24234375 57.73765625 32.4846875 58.6328125 32.734375 C74.59545862 37.3767553 74.59545862 37.3767553 79 45 C79.85738371 48.92474782 79.82855294 52.3160584 78.03515625 55.9609375 C72.26161696 63.6255201 62.1450515 66.63895014 53 68 C41.74863751 69.27181862 30.49192916 69.11474328 19.1875 69.0625 C12.855625 69.041875 6.52375 69.02125 0 69 C0 46.23 0 23.46 0 0 Z M9 5 C9 13.58 9 22.16 9 31 C15.3421875 31.061875 15.3421875 31.061875 21.8125 31.125 C23.7766687 31.15231201 23.7766687 31.15231201 25.78051758 31.18017578 C36.27372894 31.22921318 46.62995402 31.06943733 55 24 C57.34168764 20.48746854 57.49623677 19.13530644 57 15 C54.44233999 10.11719452 50.63601513 8.69982145 45.73046875 6.796875 C37.93594961 4.52207971 30.11926763 4.8825771 22.0625 4.9375 C20.80630859 4.94201172 19.55011719 4.94652344 18.25585938 4.95117188 C15.17055229 4.96290308 12.08526988 4.98083683 9 5 Z M9 36 C9 45.24 9 54.48 9 64 C39.83609503 65.94439724 39.83609503 65.94439724 67.5625 54.9375 C69.16924578 52.77188612 69.92039267 51.70664939 70 49 C68.37626252 44.12878755 66.24486304 42.04208489 61.82421875 39.80859375 C54.05031498 36.36277345 46.38094691 35.84796357 38.00390625 35.90234375 C37.17036118 35.9037587 36.3368161 35.90517365 35.47801208 35.90663147 C32.83947014 35.91218832 30.20101591 35.9247326 27.5625 35.9375 C25.76367311 35.94252058 23.96484487 35.94708251 22.16601562 35.95117188 C17.77728351 35.96128882 13.38873889 35.98087232 9 36 Z " fill="#0088CF" transform="translate(137,82)"/>
<path d="M0 0 C4.09191627 2.99927196 7.09403167 6.41691829 10.125 10.4375 C13.80722645 15.2268993 17.56404358 19.91675663 21.5 24.5 C25.81036138 29.5336228 29.94337239 34.68257355 34.015625 39.91015625 C36.79800446 43.47955161 39.62158118 47.00697218 42.5 50.5 C46.06796427 54.83854094 49.58090856 59.21707254 53.0625 63.625 C53.55234375 64.24181641 54.0421875 64.85863281 54.546875 65.49414062 C58 69.88228085 58 69.88228085 58 71 C54.37 71 50.74 71 47 71 C47 70.34 47 69.68 47 69 C46.34 69 45.68 69 45 69 C43.70668139 67.38260845 42.49043466 65.70326111 41.3125 64 C39.90950827 61.9756432 38.4669196 59.97852297 37 58 C36.57170395 57.33414383 36.1434079 56.66828766 35.70213318 55.98225403 C33.22767731 52.56738656 31.310993 50.3666883 27.16877747 49.20809937 C23.69055641 48.85798701 20.29283543 48.76026131 16.796875 48.76171875 C15.52330139 48.74220657 14.24972778 48.7226944 12.93756104 48.70259094 C10.2456623 48.67526824 7.55999638 48.66531605 4.86865234 48.68237305 C2.12700446 48.69643778 -0.60672242 48.66188619 -3.34716797 48.57983398 C-19.11418995 47.36171421 -19.11418995 47.36171421 -33.20288086 52.81762695 C-36.14097352 55.90683601 -38.07544732 59.21035558 -40 63 C-43.91991932 69.29262143 -43.91991932 69.29262143 -46 71 C-49.43550702 71.63928497 -52.55285194 71.49050328 -56 71 C-54.48655093 66.14055208 -51.69638927 63.03013055 -48.375 59.3125 C-47.27612178 58.05705811 -46.17846685 56.80054445 -45.08203125 55.54296875 C-44.54916504 54.93372559 -44.01629883 54.32448242 -43.46728516 53.69677734 C-40.94760003 50.78299837 -38.56742194 47.7640091 -36.1796875 44.7421875 C-33.37964937 41.21955888 -30.53198547 37.73676205 -27.6875 34.25 C-23.50960285 29.12345743 -19.38035144 23.96425919 -15.3125 18.75 C-10.34486242 12.38277189 -5.20988718 6.17049544 0 0 Z M0 13 C-0.98046298 14.0820545 -1.92061164 15.2006758 -2.84375 16.33203125 C-3.42680908 17.04343262 -4.00986816 17.75483398 -4.6105957 18.48779297 C-5.23409912 19.25494629 -5.85760254 20.02209961 -6.5 20.8125 C-7.77472972 22.37370597 -9.04946932 23.93490388 -10.32421875 25.49609375 C-10.94989746 26.26421387 -11.57557617 27.03233398 -12.22021484 27.82373047 C-13.76770369 29.71595483 -15.32620073 31.59770956 -16.89453125 33.47265625 C-17.69246094 34.43042969 -18.49039063 35.38820313 -19.3125 36.375 C-20.00988281 37.20773438 -20.70726562 38.04046875 -21.42578125 38.8984375 C-23.17758596 41.00665258 -23.17758596 41.00665258 -24 44 C-7.5 44 9 44 26 44 C21.35442257 37.76891111 21.35442257 37.76891111 16.52734375 31.7109375 C15.93759766 30.99679688 15.34785156 30.28265625 14.74023438 29.546875 C14.14533203 28.83015625 13.55042969 28.1134375 12.9375 27.375 C12.33873047 26.65054688 11.73996094 25.92609375 11.12304688 25.1796875 C9.95861983 23.7716618 8.7925144 22.36502195 7.62451172 20.95996094 C6.57350338 19.69192743 5.52787075 18.41941068 4.48876953 17.14160156 C3.34696176 15.74355326 2.17667616 14.36883062 1 13 C0.67 13 0.34 13 0 13 Z " fill="#0288CF" transform="translate(59,79)"/>
<path d="M0 0 C3.73323926 1.24441309 4.59860164 2.72687968 7 5.8125 C10.36078478 10.02984844 13.82012988 14.05957963 17.5 18 C21.77004603 22.58675588 25.75764758 27.33450484 29.6875 32.21875 C32.63431939 35.76289765 35.74895935 39.12773346 38.89648438 42.49316406 C42.90293172 46.80758232 46.53653324 51.34534105 50.125 56.015625 C50.74375 56.67046875 51.3625 57.3253125 52 58 C55.18043435 58.34232811 55.18043435 58.34232811 57.3828125 55.76171875 C58.30603692 54.74522569 59.21951578 53.71982737 60.125 52.6875 C60.61291016 52.14351562 61.10082031 51.59953125 61.60351562 51.0390625 C65.43684405 46.73094112 69.07282911 42.27376954 72.6875 37.78125 C75.64110477 34.22894156 78.76782323 30.86137228 81.9140625 27.48046875 C84.90441358 24.24788253 87.73786329 20.93294134 90.5 17.5 C93.8741586 13.31286478 97.37450511 9.28126484 101 5.3125 C101.48146484 4.78269531 101.96292969 4.25289063 102.45898438 3.70703125 C103.6170077 2.45041719 104.80561824 1.22210848 106 0 C106.33 0 106.66 0 107 0 C108.37113838 12.69572577 108.37113838 12.69572577 105.3125 17.8359375 C102.97310227 20.34591632 100.51055704 22.66218771 98 25 C96.5339026 26.74723077 95.09654163 28.51893968 93.6875 30.3125 C89.79744069 35.12585437 85.67128166 39.6476145 81.44433594 44.16113281 C77.53064003 48.36380945 73.89745021 52.74157308 70.3046875 57.22265625 C67.21162981 60.95005289 63.94059605 64.49654831 60.62866211 68.02954102 C58.52784332 70.28000926 56.71403309 72.42895036 55 75 C51.18371168 73.45427224 49.02974257 71.11228755 46.3125 68.0625 C45.87534668 67.57378418 45.43819336 67.08506836 44.98779297 66.58154297 C42.10777101 63.33514308 39.3489711 60.00391497 36.625 56.625 C32.75845816 51.8293951 28.65148017 47.33121333 24.4440918 42.83862305 C20.52258192 38.62750938 16.86685022 34.25834505 13.3125 29.73046875 C11.58883429 27.69526211 9.94566141 25.9672883 8 24.17578125 C-0.12364585 16.52372319 -0.12364585 16.52372319 -0.6953125 10.90625 C-0.79777529 7.2347382 -0.4923439 3.64036093 0 0 Z " fill="#0288CE" transform="translate(282,77)"/>
<path d="M0 0 C21.78 0 43.56 0 66 0 C66 1.65 66 3.3 66 5 C47.52 5 29.04 5 10 5 C10 12.92 10 20.84 10 29 C27.82 29 45.64 29 64 29 C64 30.65 64 32.3 64 34 C46.18 34 28.36 34 10 34 C10 43.9 10 53.8 10 64 C28.48 64 46.96 64 66 64 C66 65.65 66 67.3 66 69 C44.22 69 22.44 69 0 69 C0 46.23 0 23.46 0 0 Z " fill="#0088CF" transform="translate(426,82)"/>
<path d="M0 0 C26.07 0 52.14 0 79 0 C79 1.65 79 3.3 79 5 C67.45 5 55.9 5 44 5 C44 26.12 44 47.24 44 69 C41.03 69 38.06 69 35 69 C35 47.88 35 26.76 35 5 C23.45 5 11.9 5 0 5 C0 3.35 0 1.7 0 0 Z " fill="#0089D0" transform="translate(517,82)"/>
<path d="M0 0 C3.3 0 6.6 0 10 0 C10 22.77 10 45.54 10 69 C6.7 69 3.4 69 0 69 C0 46.23 0 23.46 0 0 Z " fill="#0088CF" transform="translate(239,82)"/>
<path d="M0 0 C7 0 7 0 9.87109375 2.625 C10.74834088 3.73310164 11.60355784 4.85895125 12.4375 6 C12.88287109 6.57234375 13.32824219 7.1446875 13.78710938 7.734375 C14.87753708 9.1413785 15.94151612 10.56881053 17 12 C17.33 8.04 17.66 4.08 18 0 C20.31 0 22.62 0 25 0 C25 8.25 25 16.5 25 25 C17 25 17 25 14.25 22.375 C13.47286501 21.26857052 12.7230668 20.142497 12 19 C11.60683594 18.42765625 11.21367187 17.8553125 10.80859375 17.265625 C9.84811098 15.86004046 8.92059038 14.43202947 8 13 C7.67 16.96 7.34 20.92 7 25 C4.69 25 2.38 25 0 25 C0 16.75 0 8.5 0 0 Z " fill="#0088CF" transform="translate(310,170)"/>
<path d="M0 0 C3.88282745 4.11815032 4.45221251 7.49017223 4.31640625 13.00390625 C3.84475399 17.06011571 2.05995911 19.31472328 -0.9375 21.9375 C-4.91919194 24.42605746 -8.33573653 24.49948396 -12.9375 24.1875 C-17.56744259 22.46261943 -20.56472164 20.56801389 -22.9375 16.1875 C-23.66221973 11.75113159 -23.94915843 7.36579432 -22.01953125 3.2109375 C-16.5721865 -3.94641515 -7.29962222 -4.50402222 0 0 Z M-13.6875 5.75 C-16.34729423 8.07857481 -16.34729423 8.07857481 -15.9375 11.8125 C-15.25492476 15.43823889 -15.25492476 15.43823889 -11.9375 17.1875 C-8.84159816 16.99400614 -6.65645424 16.62814937 -4 15 C-2.67729194 13.10614262 -2.67729194 13.10614262 -3 10.1875 C-4.06186294 6.78953859 -4.83053427 5.83236421 -7.9375 4.1875 C-11.02992093 3.9404953 -11.02992093 3.9404953 -13.6875 5.75 Z " fill="#0288CF" transform="translate(135.9375,171.8125)"/>
<path d="M0 0 C2.0625 -0.061875 4.125 -0.12375 6.25 -0.1875 C7.99023438 -0.23970703 7.99023438 -0.23970703 9.765625 -0.29296875 C13.25197724 0.02282402 14.63006926 0.45580965 17 3 C17.25 6.5625 17.25 6.5625 17 10 C17 10.66 17 11.32 17 12 C17.66 12.66 18.32 13.32 19 14 C19.5412844 19.68348624 19.5412844 19.68348624 19 22 C16.54049159 24.78411358 15.06376741 24.99491217 11.328125 25.29296875 C9.96840181 25.27596307 8.60892078 25.23720589 7.25 25.1875 C4.8575 25.125625 2.465 25.06375 0 25 C0 16.75 0 8.5 0 0 Z M7 6 C7 7.32 7 8.64 7 10 C8.32 9.34 9.64 8.68 11 8 C10.67 7.34 10.34 6.68 10 6 C9.01 6 8.02 6 7 6 Z M7 15 C7 16.32 7 17.64 7 19 C8.65 19 10.3 19 12 19 C11.67 17.68 11.34 16.36 11 15 C9.68 15 8.36 15 7 15 Z " fill="#0089D0" transform="translate(264,170)"/>
<path d="M0 0 C2.64 0 5.28 0 8 0 C17 19.45810056 17 19.45810056 17 25 C14.69 25 12.38 25 10 25 C9.67 23.68 9.34 22.36 9 21 C6.03 21 3.06 21 0 21 C-0.33 22.32 -0.66 23.64 -1 25 C-3.64 25 -6.28 25 -9 25 C-8.06351045 22.33297474 -7.12583379 19.6663764 -6.1875 17 C-5.92646484 16.25621094 -5.66542969 15.51242188 -5.39648438 14.74609375 C-3.65711144 9.80713357 -1.85322307 4.89740632 0 0 Z M4 9 C3.67 10.98 3.34 12.96 3 15 C3.99 15 4.98 15 6 15 C5.67 13.02 5.34 11.04 5 9 C4.67 9 4.34 9 4 9 Z " fill="#0188CF" transform="translate(229,170)"/>
<path d="M0 0 C0.66 0.33 1.32 0.66 2 1 C1.34 2.98 0.68 4.96 0 7 C-2.97 6.505 -2.97 6.505 -6 6 C-6 6.66 -6 7.32 -6 8 C-5.15115234 8.39832031 -5.15115234 8.39832031 -4.28515625 8.8046875 C-3.18494141 9.33449219 -3.18494141 9.33449219 -2.0625 9.875 C-1.33160156 10.22304687 -0.60070312 10.57109375 0.15234375 10.9296875 C2 12 2 12 3 14 C3.5801105 20.26519337 3.5801105 20.26519337 1.125 23.375 C-2.68681494 26.28991731 -5.20337975 26.31977468 -10 26 C-13.4375 24.5 -13.4375 24.5 -16 23 C-15.01 21.02 -14.02 19.04 -13 17 C-10.69 17.66 -8.38 18.32 -6 19 C-5.67 18.34 -5.34 17.68 -5 17 C-5.83144531 16.61908203 -5.83144531 16.61908203 -6.6796875 16.23046875 C-7.40414062 15.88628906 -8.12859375 15.54210937 -8.875 15.1875 C-9.59429687 14.85105469 -10.31359375 14.51460937 -11.0546875 14.16796875 C-13 13 -13 13 -15 10 C-14.67425569 3.91943958 -14.67425569 3.91943958 -12.625 1.125 C-8.36878453 -1.82161071 -4.8132422 -0.7640067 0 0 Z " fill="#0088CF" transform="translate(105,170)"/>
<path d="M0 0 C4.95 0 9.9 0 15 0 C15 1.98 15 3.96 15 6 C12.36 6 9.72 6 7 6 C7 6.99 7 7.98 7 9 C9.64 9 12.28 9 15 9 C15 11.31 15 13.62 15 16 C12.36 16 9.72 16 7 16 C7 16.99 7 17.98 7 19 C9.64 19 12.28 19 15 19 C15 20.98 15 22.96 15 25 C10.05 25 5.1 25 0 25 C0 16.75 0 8.5 0 0 Z " fill="#0088CF" transform="translate(341,170)"/>
<path d="M0 0 C4.95 0 9.9 0 15 0 C15 1.98 15 3.96 15 6 C12.36 6 9.72 6 7 6 C7 6.99 7 7.98 7 9 C9.64 9 12.28 9 15 9 C15 11.31 15 13.62 15 16 C12.36 16 9.72 16 7 16 C7 16.99 7 17.98 7 19 C9.64 19 12.28 19 15 19 C15 20.98 15 22.96 15 25 C10.05 25 5.1 25 0 25 C0 16.75 0 8.5 0 0 Z " fill="#0088CF" transform="translate(183,170)"/>
<path d="M0 0 C4.95 0 9.9 0 15 0 C15 1.98 15 3.96 15 6 C12.36 6 9.72 6 7 6 C7 6.99 7 7.98 7 9 C9.31 9 11.62 9 14 9 C14 11.31 14 13.62 14 16 C11.69 16 9.38 16 7 16 C7 16.99 7 17.98 7 19 C9.64 19 12.28 19 15 19 C15 20.98 15 22.96 15 25 C10.05 25 5.1 25 0 25 C0 16.75 0 8.5 0 0 Z " fill="#0089D0" transform="translate(289,170)"/>
<path d="M0 0 C0 2.97 0 5.94 0 9 C-1.32 8.34 -2.64 7.68 -4 7 C-6.6272914 7.07533247 -6.6272914 7.07533247 -9 8 C-11.29637779 10.75895635 -11.29637779 10.75895635 -10.75 13.5625 C-10.16191948 16.15000567 -10.16191948 16.15000567 -8 18 C-6.0068433 18.02375926 -6.0068433 18.02375926 -3.875 17.625 C-2.59625 17.41875 -1.3175 17.2125 0 17 C0 19.64 0 22.28 0 25 C-4.44817519 25.8204412 -7.94644993 26.33793115 -12.3125 24.9375 C-16.1266599 22.18775681 -18.54642061 19.58262549 -19.3828125 14.8203125 C-19.58554828 10.80614405 -19.14490743 8.31300004 -17.4375 4.625 C-12.10901034 -1.11337348 -7.21844486 -1.39303322 0 0 Z " fill="#0188CF" transform="translate(164,170)"/>
<path d="M0 0 C4.95 0 9.9 0 15 0 C15 1.98 15 3.96 15 6 C12.36 6 9.72 6 7 6 C7 6.99 7 7.98 7 9 C9.31 9 11.62 9 14 9 C14 11.31 14 13.62 14 16 C11.69 16 9.38 16 7 16 C7 18.97 7 21.94 7 25 C4.69 25 2.38 25 0 25 C0 16.75 0 8.5 0 0 Z " fill="#0089D0" transform="translate(362,170)"/>
<path d="M0 0 C9 0 9 0 13 2 C14.60725635 5.21451269 14.05748185 8.43612536 14 12 C12.02 12.99 12.02 12.99 10 14 C10.433125 14.62648437 10.86625 15.25296875 11.3125 15.8984375 C11.869375 16.71570313 12.42625 17.53296875 13 18.375 C13.556875 19.18710938 14.11375 19.99921875 14.6875 20.8359375 C16 23 16 23 16 25 C13.70703125 25.25 13.70703125 25.25 11 25 C9.19921875 23.25 9.19921875 23.25 7.6875 21 C7.17574219 20.2575 6.66398437 19.515 6.13671875 18.75 C5.57404297 17.88375 5.57404297 17.88375 5 17 C4.67 19.64 4.34 22.28 4 25 C2.68 25 1.36 25 0 25 C0 16.75 0 8.5 0 0 Z M4 4 C4 6.31 4 8.62 4 11 C5.65 10.67 7.3 10.34 9 10 C9.33 8.68 9.66 7.36 10 6 C7.18490007 3.7226499 7.18490007 3.7226499 4 4 Z " fill="#0288CF" transform="translate(468,170)"/>
<path d="M0 0 C0.66 0 1.32 0 2 0 C3.83629082 4.1445297 5.66853742 8.29083471 7.5 12.4375 C8.02464844 13.62150391 8.54929687 14.80550781 9.08984375 16.02539062 C9.58613281 17.15009766 10.08242188 18.27480469 10.59375 19.43359375 C11.05458984 20.47572021 11.51542969 21.51784668 11.99023438 22.59155273 C13 25 13 25 13 26 C11.35 26 9.7 26 8 26 C7.34 24.02 6.68 22.04 6 20 C2.59991484 20.07017061 -0.67939878 20.23577735 -4 21 C-5.91744593 23.44309577 -5.91744593 23.44309577 -7 26 C-8.32 26 -9.64 26 -11 26 C-10.39458825 22.30090527 -9.34742345 19.28645598 -7.71484375 15.91796875 C-7.26689453 14.98662109 -6.81894531 14.05527344 -6.35742188 13.09570312 C-5.88884766 12.13599609 -5.42027344 11.17628906 -4.9375 10.1875 C-4.46505859 9.20845703 -3.99261719 8.22941406 -3.50585938 7.22070312 C-2.34229316 4.81129833 -1.17353704 2.40455993 0 0 Z M0 10 C-0.66 11.98 -1.32 13.96 -2 16 C-0.02 16 1.96 16 4 16 C2.515 13.03 2.515 13.03 1 10 C0.67 10 0.34 10 0 10 Z " fill="#0188CF" transform="translate(438,169)"/>
<path d="M0 0 C5.61 0 11.22 0 17 0 C17 1.98 17 3.96 17 6 C15.35 6 13.7 6 12 6 C12 12.27 12 18.54 12 25 C9.69 25 7.38 25 5 25 C5 18.73 5 12.46 5 6 C3.35 6 1.7 6 0 6 C0 4.02 0 2.04 0 0 Z " fill="#0089D0" transform="translate(394,170)"/>
<path d="M0 0 C5.61 0 11.22 0 17 0 C17 1.98 17 3.96 17 6 C15.35 6 13.7 6 12 6 C12 12.27 12 18.54 12 25 C9.69 25 7.38 25 5 25 C5 18.73 5 12.46 5 6 C3.35 6 1.7 6 0 6 C0 4.02 0 2.04 0 0 Z " fill="#0089D0" transform="translate(202,170)"/>
<path d="M0 0 C2.31 0 4.62 0 7 0 C7 8.25 7 16.5 7 25 C4.69 25 2.38 25 0 25 C0 16.75 0 8.5 0 0 Z " fill="#0089D0" transform="translate(382,170)"/>
<path d="M0 0 C2.31 0 4.62 0 7 0 C7 8.25 7 16.5 7 25 C4.69 25 2.38 25 0 25 C0 16.75 0 8.5 0 0 Z " fill="#0089D0" transform="translate(170,170)"/>
<path d="M0 0 C1.65 0 3.3 0 5 0 C5 6.93 5 13.86 5 21 C7.31 21 9.62 21 12 21 C12 22.32 12 23.64 12 25 C8.04 25 4.08 25 0 25 C0 16.75 0 8.5 0 0 Z " fill="#0089D0" transform="translate(514,170)"/>
<path d="M0 0 C3.36720387 1.39332574 4.9859524 2.9789286 7 6 C5.02 6.99 5.02 6.99 3 8 C1.02 6.68 -0.96 5.36 -3 4 C-2.01 2.68 -1.02 1.36 0 0 Z " fill="#0788CD" transform="translate(230,161)"/>
<path d="M0 0 C0.99 0.33 1.98 0.66 3 1 C3 2.32 3 3.64 3 5 C2.01 5.33 1.02 5.66 0 6 C-0.66 5.67 -1.32 5.34 -2 5 C-2 3.68 -2 2.36 -2 1 C-1.34 0.67 -0.68 0.34 0 0 Z " fill="#0089D0" transform="translate(533,190)"/>
<path d="M0 0 C1.32 0.66 2.64 1.32 4 2 C3.34 3.32 2.68 4.64 2 6 C1.01 5.67 0.02 5.34 -1 5 C-0.67 3.35 -0.34 1.7 0 0 Z " fill="#0688CD" transform="translate(491,190)"/>
</svg>
