<?xml version="1.0" encoding="UTF-8"?>
<svg xmlns="http://www.w3.org/2000/svg" xmlns:xlink="http://www.w3.org/1999/xlink" width="140px" height="140px" viewBox="0 0 140 140" version="1.1">
<g id="surface1">
<path style=" stroke:none;fill-rule:nonzero;fill:rgb(0%,0%,0%);fill-opacity:1;" d="M 134.761719 0 L 5.238281 0 C 2.34375 0 0 2.34375 0 5.238281 L 0 134.761719 C 0 137.65625 2.34375 140 5.238281 140 L 134.761719 140 C 137.65625 140 140 137.65625 140 134.761719 L 140 5.238281 C 140 2.34375 137.65625 0 134.761719 0 Z M 37.195312 115.199219 C 37.195312 117.128906 35.628906 118.695312 33.703125 118.695312 L 19.722656 118.695312 C 17.796875 118.695312 16.230469 117.128906 16.230469 115.199219 L 16.230469 54.097656 C 16.230469 52.167969 17.796875 50.609375 19.722656 50.609375 L 33.703125 50.609375 C 35.628906 50.609375 37.195312 52.167969 37.195312 54.097656 Z M 37.195312 36.371094 C 37.195312 38.300781 35.628906 39.859375 33.703125 39.859375 L 19.722656 39.859375 C 17.796875 39.859375 16.230469 38.300781 16.230469 36.371094 L 16.230469 23.957031 C 16.230469 22.027344 17.796875 20.464844 19.722656 20.464844 L 33.703125 20.464844 C 35.628906 20.464844 37.195312 22.027344 37.195312 23.957031 Z M 123.765625 115.199219 C 123.765625 117.128906 122.199219 118.695312 120.277344 118.695312 L 106.296875 118.695312 C 104.371094 118.695312 102.800781 117.128906 102.800781 115.199219 L 102.800781 89.402344 C 102.800781 80.847656 102.355469 75.3125 101.460938 72.800781 C 100.5625 70.289062 99.109375 68.332031 97.097656 66.945312 C 95.078125 65.550781 92.65625 64.855469 89.824219 64.855469 C 86.191406 64.855469 82.933594 65.855469 80.046875 67.839844 C 77.164062 69.828125 75.1875 72.464844 74.117188 75.75 C 73.046875 79.03125 72.511719 85.101562 72.511719 93.949219 L 72.511719 115.199219 C 72.511719 117.128906 70.949219 118.695312 69.023438 118.695312 L 55.042969 118.695312 C 53.113281 118.695312 51.546875 117.128906 51.546875 115.199219 L 51.546875 54.097656 C 51.546875 52.167969 53.113281 50.609375 55.042969 50.609375 L 67.53125 50.609375 C 69.460938 50.609375 71.019531 52.167969 71.019531 54.097656 L 71.019531 58.753906 C 71.019531 60.679688 71.964844 60.992188 73.261719 59.566406 C 79.785156 52.402344 87.746094 48.8125 97.136719 48.8125 C 101.757812 48.8125 105.984375 49.644531 109.816406 51.3125 C 113.644531 52.980469 116.542969 55.101562 118.507812 57.691406 C 120.46875 60.277344 121.839844 63.210938 122.609375 66.492188 C 123.382812 69.773438 123.765625 74.472656 123.765625 80.59375 Z M 123.765625 115.199219 "/>
</g>
</svg>
